<svg width="43" height="43" viewBox="0 0 43 43" fill="none" xmlns="http://www.w3.org/2000/svg">
<g clip-path="url(#clip0)">
<g clip-path="url(#clip1)">
<path d="M42.53 42.1389L41.7963 38.5536C41.7266 38.2197 41.4259 37.9798 41.0772 37.9799H39.6097V32.9604C39.6097 31.7723 38.6242 30.8091 37.4085 30.8091H17.5972C16.3814 30.8091 15.3959 31.7723 15.3959 32.9604V37.9799H13.9284C13.5797 37.9798 13.279 38.2197 13.2093 38.5536L12.4756 42.1389C12.3945 42.527 12.6507 42.9058 13.0477 42.9849C13.0961 42.9946 13.1453 42.9994 13.1947 42.9994H41.811C42.2162 42.9995 42.5448 42.6785 42.5449 42.2825C42.5449 42.2342 42.54 42.1862 42.53 42.1389ZM16.8634 32.9604C16.8634 32.5644 17.192 32.2433 17.5972 32.2433H37.4085C37.8137 32.2433 38.1422 32.5644 38.1422 32.9604V37.9799H16.8634V32.9604V32.9604ZM14.0898 41.5653L14.5301 39.414H40.4763L40.9165 41.5653H14.0898Z" fill="#020202"/>
<path d="M37.3807 14.2962C36.7125 13.6746 35.7245 13.5133 34.886 13.8889L28.5573 7.70408L23.7953 3.04739C24.1956 2.22894 24.0261 1.25291 23.3719 0.609335C22.501 -0.203112 21.1303 -0.203112 20.2593 0.609335L11.9562 8.71803C11.0926 9.54858 11.0815 10.9061 11.9314 11.7501C12.5925 12.4067 13.6088 12.5772 14.4561 12.1736L16.6273 14.2954L16.4248 14.4934C15.7085 15.1813 15.463 16.2115 15.7945 17.1379L4.59814 28.0798C3.75965 27.6869 2.7589 27.8527 2.09972 28.4935C1.2404 29.3336 1.2404 30.6953 2.09972 31.5354L5.21229 34.5779C6.06821 35.4178 7.45867 35.4206 8.31808 34.5841C8.97928 33.9405 9.15217 32.9589 8.74898 32.1363L19.9453 21.1937C20.8933 21.5166 21.9469 21.2768 22.6514 20.5777L22.8532 20.3806L25.5431 23.0094C25.0238 24.0806 25.4914 25.3603 26.5874 25.8678C27.4254 26.2558 28.4226 26.0876 29.079 25.4474L37.3807 17.338C38.24 16.4979 38.24 15.1362 37.3807 14.2962ZM14.0334 10.7466C13.747 11.0268 13.2824 11.0271 12.9957 10.7472C12.9955 10.747 12.9953 10.7468 12.9951 10.7466C12.7084 10.4668 12.7081 10.0127 12.9946 9.73251C12.9947 9.73233 12.9949 9.73215 12.9951 9.73198L16.1084 6.69014L21.2975 1.6197C21.5839 1.34021 22.0479 1.34021 22.3343 1.6197C22.6207 1.89971 22.6207 2.35362 22.3343 2.63364L14.0334 10.7466ZM7.28762 33.5644C7.0009 33.8444 6.53626 33.8442 6.24973 33.564L3.13715 30.5229C2.85998 30.234 2.87493 29.7802 3.17054 29.5093C3.45294 29.2505 3.89246 29.2506 4.17468 29.5096L7.28799 32.55C7.57452 32.8302 7.57433 33.2843 7.28762 33.5644ZM7.80675 31.0291L5.73096 29.0005L16.6272 18.3519L18.7022 20.3806L7.80675 31.0291ZM21.6138 19.5638C21.1523 20.0151 20.4038 20.0153 19.9421 19.5643C19.9419 19.5642 19.9417 19.564 19.9415 19.5638L17.4622 17.1408C17.0015 16.6894 17.0015 15.9587 17.4622 15.5073L17.6647 15.3101L21.8155 19.3666L21.6138 19.5638ZM26.4851 21.9022L15.5897 11.2536L22.8531 4.15456L33.7493 14.8031L26.4851 21.9022ZM36.3431 16.3241L28.0414 24.4363C27.7644 24.7254 27.3001 24.7403 27.0043 24.4696C26.7085 24.1989 26.6932 23.7451 26.9702 23.456C26.9809 23.4449 26.9918 23.4341 27.0032 23.4237L35.3063 15.31C35.4429 15.1745 35.6297 15.0987 35.8243 15.0999C36.2295 15.1 36.558 15.4211 36.5579 15.8172C36.5579 16.0073 36.4807 16.1896 36.3431 16.3241Z" fill="#020202"/>
<path d="M20.4425 10.4919L21.7177 9.24704L20.6788 8.23309L19.405 9.47793C18.4902 10.3737 18.4902 11.8241 19.405 12.7198L20.0654 13.3652L21.1029 12.3513L20.4426 11.7059C20.1006 11.3701 20.1006 10.8276 20.4425 10.4919Z" fill="#020202"/>
<path d="M20.1564 33.6777C19.1487 33.6789 18.3321 34.477 18.3309 35.4618V36.546H19.7984V35.4618C19.7987 35.2687 19.9589 35.1122 20.1564 35.1119H22.7334V33.6777H20.1564Z" fill="#020202"/>
<path d="M22.7329 6.13242L21.6952 7.14651L22.7329 8.16061L23.7705 7.14651L22.7329 6.13242Z" fill="#020202"/>
</g>
</g>
<defs>
<clipPath id="clip0">
<rect width="43" height="43" fill="white"/>
</clipPath>
<clipPath id="clip1">
<rect width="44" height="43" fill="white"/>
</clipPath>
</defs>
</svg>
